<svg width="434.99774169921875px" height="93.92000274658203px" xmlns="http://www.w3.org/2000/svg" viewBox="32.501129150390625 28.039998626708986 434.99774169921875 93.92000274658203" style="background:#f2eddb" preserveAspectRatio="xMidYMid"><defs><filter id="editing-vintage" x="-100%" y="-100%" width="300%" height="300%"><feConvolveMatrix in="SourceGraphic" result="extrude" order="9,9" divisor="1" kernelMatrix="1,0,0,0,0,0,0,0,0,0,1,0,0,0,0,0,0,0,0,0,1,0,0,0,0,0,0,0,0,0,1,0,0,0,0,0,0,0,0,0,1,0,0,0,0,0,0,0,0,0,1,0,0,0,0,0,0,0,0,0,1,0,0,0,0,0,0,0,0,0,1,0,0,0,0,0,0,0,0,0,1"> </feConvolveMatrix><feFlood flood-color="#900" result="flood-extrude"></feFlood><feComposite operator="in" in="flood-extrude" in2="extrude" result="extrude-color"></feComposite><feOffset dx="5" dy="5" in="extrude-color" result="extrude-offset"></feOffset><feColorMatrix in="SourceGraphic" result="stroke" type="matrix" values="0 0 0 0 0 0 0 0 0 0 0 0 0 0 0 0 1 0 0 0 "></feColorMatrix><feColorMatrix in="SourceGraphic" result="fill" type="matrix" values="0 0 0 0 0 0 0 0 0 0 0 0 0 0 0 1 0 0 1 0 "></feColorMatrix><feConvolveMatrix in="stroke" result="inner-shadow" order="5,5" divisor="1" kernelMatrix="1 0 0 0 0 0 1 0 0 0 0 0 1 0 0 0 0 0 1 0 0 0 0 0 1 "></feConvolveMatrix><feOffset dx="1" dy="1" in="inner-shadow" result="offset"></feOffset><feComposite operator="in" in="offset" in2="SourceAlpha" result="comp"></feComposite><feFlood flood-color="#000" result="flood3"></feFlood><feComposite operator="in" in="flood3" in2="comp" result="comp2"></feComposite><feColorMatrix in="comp2" result="comp3" type="matrix" values="1 0 0 0 0 0 1 0 0 0 0 0 1 0 0 0 0 0 0.5 0 "></feColorMatrix><feFlood flood-color="#f00" result="flood1"></feFlood><feComposite operator="in" in="flood1" in2="fill" result="fill2"></feComposite><feFlood flood-color="#fff" result="flood2"></feFlood><feComposite operator="in" in="flood2" in2="stroke" result="stroke2"></feComposite><feMerge result="obj"><feMergeNode in="extrude-offset"></feMergeNode><feMergeNode in="fill2"></feMergeNode><feMergeNode in="comp3"></feMergeNode></feMerge><feConvolveMatrix in="SourceAlpha" result="shadow" order="9,9" divisor="1" kernelMatrix="1,0,0,0,0,0,0,0,0,0,1,0,0,0,0,0,0,0,0,0,1,0,0,0,0,0,0,0,0,0,1,0,0,0,0,0,0,0,0,0,1,0,0,0,0,0,0,0,0,0,1,0,0,0,0,0,0,0,0,0,1,0,0,0,0,0,0,0,0,0,1,0,0,0,0,0,0,0,0,0,1"></feConvolveMatrix><feOffset dx="15" dy="15" in="shadow" result="shadow-offset"></feOffset><feFlood flood-color="#444" result="flood-shadow"></feFlood><feComposite operator="in" in="flood-shadow" in2="shadow-offset" result="shadow-color"></feComposite><feMerge><feMergeNode in="shadow-color"></feMergeNode><feMergeNode in="obj"></feMergeNode></feMerge></filter></defs><g transform="translate(-9,-9)"><g filter="url(#editing-vintage)"><g transform="translate(97.85100737214088, 91.49500465393066)"><path d="M19.18-31.35L19.18-31.35L19.18-31.35Q30.69-31.35 30.69-23.22L30.69-23.22L30.69-23.22Q30.69-18.75 27.82-16.07L27.82-16.07L27.82-16.07Q25.00-13.39 20.07-13.39L20.07-13.39L20.07-13.39Q17.77-13.39 15.98-14.71L15.98-14.71L15.98-14.71Q15.13-15.28 14.57-16.03L14.57-16.03L14.57-16.03Q18.00-16.03 19.81-18.12L19.81-18.12L19.81-18.12Q21.62-20.21 21.62-24.30L21.62-24.30L21.62-24.30Q21.62-28.39 17.58-28.39L17.58-28.39L16.45-28.39L16.45-28.39Q16.17-28.39 15.93-28.34L15.93-28.34L10.53 0L0.33 0L6.11-30.79L6.11-30.79Q11.14-31.25 14.05-31.30L14.05-31.30L14.05-31.30Q16.97-31.35 19.18-31.35ZM49.96-15.13L59.45-15.98L59.45-15.98Q56.07-8.55 56.07 0.05L56.07 0.05L56.07 0.05Q54.80 0.94 52.95 0.94L52.95 0.94L52.95 0.94Q51.09 0.94 49.91 0.07L49.91 0.07L49.91 0.07Q48.74-0.80 48.50-1.69L48.50-1.69L48.50-1.69Q47.33-0.47 45.43 0.23L45.43 0.23L45.43 0.23Q43.52 0.94 41.50 0.94L41.50 0.94L41.50 0.94Q39.48 0.94 37.72 0.28L37.72 0.28L37.72 0.28Q35.95-0.38 34.59-1.83L34.59-1.83L34.59-1.83Q31.58-5.03 31.58-11.09L31.58-11.09L31.58-11.09Q31.58-20.49 36.61-26.13L36.61-26.13L36.61-26.13Q41.78-31.96 50.95-31.96L50.95-31.96L50.95-31.96Q57.29-31.96 59.55-28.67L59.55-28.67L59.55-28.67Q60.25-27.64 60.25-26.39L60.25-26.39L60.25-26.39Q60.25-25.14 59.71-24.09L59.71-24.09L59.71-24.09Q59.17-23.03 58.33-22.18L58.33-22.18L58.33-22.18Q56.31-20.30 53.81-20.30L53.81-20.30L53.81-20.30Q52.83-20.30 51.89-20.63L51.89-20.63L51.89-20.63Q52.08-22.04 52.08-23.69L52.08-23.69L52.08-23.69Q52.08-25.33 51.96-26.09L51.96-26.09L51.96-26.09Q51.84-26.84 51.56-27.45L51.56-27.45L51.56-27.45Q50.95-28.72 49.61-28.72L49.61-28.72L49.61-28.72Q48.27-28.72 46.79-27.28L46.79-27.28L46.79-27.28Q45.31-25.85 44.13-23.50L44.13-23.50L44.13-23.50Q41.55-18.24 41.55-11.89L41.55-11.89L41.55-11.89Q41.55-8.98 42.68-6.91L42.68-6.91L42.68-6.91Q43.90-4.65 46.06-4.65L46.06-4.65L46.06-4.65Q46.81-4.65 47.49-5.03L47.49-5.03L47.49-5.03Q48.17-5.41 48.46-5.69L48.46-5.69L49.96-15.13ZM81.83-7.24L81.83-7.24L81.83-7.24Q82.72-6.11 82.72-4.28L82.72-4.28L82.72-4.28Q82.72-1.74 80.84-0.40L80.84-0.40L80.84-0.40Q78.96 0.94 76.00 0.94L76.00 0.94L76.00 0.94Q74.31 0.94 71.72 0.56L71.72 0.56L71.72 0.56Q66.65-0.23 65.09-0.23L65.09-0.23L65.09-0.23Q63.54-0.23 62.93-0.16L62.93-0.16L62.93-0.16Q62.32-0.09 61.34 0L61.34 0L67.12-31.02L87.37-31.02L87.37-31.02Q87.37-28.15 85.99-26.65L85.99-26.65L85.99-26.65Q84.60-25.14 81.87-25.14L81.87-25.14L81.87-25.14Q79.15-25.14 76.38-26.41L76.38-26.41L74.92-18.19L83.28-18.19L83.28-18.19Q83.28-15.70 82.06-14.31L82.06-14.31L82.06-14.31Q80.84-12.93 78.80-12.93L78.80-12.93L78.80-12.93Q76.75-12.93 75.48-13.39L75.48-13.39L75.48-13.39Q74.21-13.87 74.07-14.01L74.07-14.01L72.38-5.12L72.38-5.12Q73.51-4.98 75.62-4.98L75.62-4.98L75.62-4.98Q79.24-4.98 81.83-7.24ZM107.68 0.94L107.68 0.94L107.68 0.94Q101.66 0.94 101.10-7.61L101.10-7.61L93.01-7.61L93.01-7.61Q92.07-5.45 91.42-3.57L91.42-3.57L90.19 0L83.61 0L98.42-31.02L108.52-31.02L110.50-8.18L110.50-8.18Q110.97-3.24 112.85-1.79L112.85-1.79L112.85-1.79Q111.48 0.94 107.68 0.94ZM97.06-17.01L94.47-11.04L100.96-11.04L100.39-23.12L100.39-24.39L97.06-17.01ZM146.64-24.91L146.64-24.91L146.64-24.91Q142.83-24.91 140.06-26.18L140.06-26.18L138.56-18.57L147.63-18.57L147.63-18.57Q147.63-16.07 146.38-14.50L146.38-14.50L146.38-14.50Q145.14-12.93 142.88-12.93L142.88-12.93L142.88-12.93Q140.44-12.93 138.18-13.82L138.18-13.82L138.18-13.82Q137.71-14.01 137.66-14.05L137.66-14.05L134.98 0L124.74 0L130.71-31.02L151.67-31.02L151.67-31.02Q151.67-28.15 150.33-26.53L150.33-26.53L150.33-26.53Q148.99-24.91 146.64-24.91ZM160.22 0L149.98 0L155.95-31.02L166.29-31.02L160.22 0ZM171.08-22.89L171.08-22.89L171.08-22.89Q169.48-24.11 169.48-26.72L169.48-26.72L169.48-26.72Q169.48-29.33 171.20-30.69L171.20-30.69L171.20-30.69Q172.91-32.05 175.87-32.05L175.87-32.05L175.87-32.05Q177.75-32.05 182.22-31.40L182.22-31.40L185.41-30.93L185.41-30.93Q187.01-30.74 188.68-30.74L188.68-30.74L188.68-30.74Q190.35-30.74 191.48-31.44L191.48-31.44L191.48-31.44Q193.17-29.94 193.17-27.78L193.17-27.78L193.17-27.78Q193.17-25.61 191.24-24.06L191.24-24.06L191.24-24.06Q189.27-22.42 186.73-22.42L186.73-22.42L186.73-22.42Q185.51-22.42 183.53-22.75L183.53-22.75L183.53-22.75Q181.23-15.51 181.23-10.48L181.23-10.48L181.23-10.48Q181.23-5.45 183.77-2.82L183.77-2.82L183.77-2.82Q182.59-0.70 180.86 0.12L180.86 0.12L180.86 0.12Q179.12 0.94 176.51 0.94L176.51 0.94L176.51 0.94Q173.90 0.94 172.28-0.49L172.28-0.49L172.28-0.49Q170.66-1.93 170.66-4.89L170.66-4.89L170.66-4.89Q170.66-8.32 172.54-13.96L172.54-13.96L172.54-13.96Q174.42-19.55 177.24-23.83L177.24-23.83L177.24-23.83Q175.87-23.97 174.46-23.97L174.46-23.97L174.46-23.97Q171.55-23.97 171.08-22.89ZM196.51 0L191.34 0L196.98-31.02L207.08-31.02L214.41-9.68L218.31-31.02L223.53-30.97L217.80 0L207.03 0L200.27-20.54L196.51 0ZM244.78-7.24L244.78-7.24L244.78-7.24Q245.67-6.11 245.67-4.28L245.67-4.28L245.67-4.28Q245.67-1.74 243.79-0.40L243.79-0.40L243.79-0.40Q241.91 0.94 238.95 0.94L238.95 0.94L238.95 0.94Q237.26 0.94 234.67 0.56L234.67 0.56L234.67 0.56Q229.59-0.23 228.04-0.23L228.04-0.23L228.04-0.23Q226.49-0.23 225.88-0.16L225.88-0.16L225.88-0.16Q225.27-0.09 224.28 0L224.28 0L230.06-31.02L250.32-31.02L250.32-31.02Q250.32-28.15 248.94-26.65L248.94-26.65L248.94-26.65Q247.55-25.14 244.82-25.14L244.82-25.14L244.82-25.14Q242.10-25.14 239.32-26.41L239.32-26.41L237.87-18.19L246.23-18.19L246.23-18.19Q246.23-15.70 245.01-14.31L245.01-14.31L245.01-14.31Q243.79-12.93 241.74-12.93L241.74-12.93L241.74-12.93Q239.70-12.93 238.43-13.39L238.43-13.39L238.43-13.39Q237.16-13.87 237.02-14.01L237.02-14.01L235.33-5.12L235.33-5.12Q236.46-4.98 238.57-4.98L238.57-4.98L238.57-4.98Q242.19-4.98 244.78-7.24ZM268.32-21.71L268.32-21.71L268.32-21.71Q269.03-23.12 269.03-24.44L269.03-24.44L269.03-24.44Q269.03-25.76 268.89-26.48L268.89-26.48L268.89-26.48Q268.75-27.21 268.42-27.78L268.42-27.78L268.42-27.78Q267.71-29.00 266.30-29.00L266.30-29.00L266.30-29.00Q264.56-29.00 263.15-27.73L263.15-27.73L263.15-27.73Q261.65-26.41 261.65-24.35L261.65-24.35L261.65-24.35Q261.65-23.03 262.57-22.02L262.57-22.02L262.57-22.02Q263.48-21.01 264.89-20.07L264.89-20.07L264.89-20.07Q266.30-19.13 267.90-18.19L267.90-18.19L267.90-18.19Q269.50-17.25 270.91-16.12L270.91-16.12L270.91-16.12Q274.15-13.54 274.15-10.06L274.15-10.06L274.15-10.06Q274.15-7.71 272.91-5.71L272.91-5.71L272.91-5.71Q271.66-3.71 269.59-2.26L269.59-2.26L269.59-2.26Q265.08 0.94 259.11 0.94L259.11 0.94L259.11 0.94Q254.27 0.94 251.78-0.63L251.78-0.63L251.78-0.63Q249.29-2.21 249.29-4.61L249.29-4.61L249.29-4.61Q249.29-8.88 252.63-9.96L252.63-9.96L252.63-9.96Q253.56-10.29 255.00-10.29L255.00-10.29L255.00-10.29Q256.43-10.29 258.08-9.68L258.08-9.68L258.08-9.68Q257.32-7.75 257.32-6.02L257.32-6.02L257.32-6.02Q257.32-2.26 260.00-2.26L260.00-2.26L260.00-2.26Q261.74-2.26 263.18-3.52L263.18-3.52L263.18-3.52Q264.61-4.79 264.61-6.23L264.61-6.23L264.61-6.23Q264.61-7.66 263.69-8.70L263.69-8.70L263.69-8.70Q262.78-9.73 261.41-10.55L261.41-10.55L261.41-10.55Q260.05-11.37 258.48-12.17L258.48-12.17L258.48-12.17Q256.90-12.97 255.54-14.10L255.54-14.10L255.54-14.10Q252.34-16.68 252.34-20.82L252.34-20.82L252.34-20.82Q252.34-23.50 253.66-25.59L253.66-25.59L253.66-25.59Q254.97-27.68 257.09-29.09L257.09-29.09L257.09-29.09Q261.32-31.96 266.51-31.96L266.51-31.96L266.51-31.96Q271.71-31.96 274.22-30.41L274.22-30.41L274.22-30.41Q276.74-28.86 276.74-26.23L276.74-26.23L276.74-26.23Q276.74-23.92 274.95-22.47L274.95-22.47L274.95-22.47Q273.40-21.24 271.52-21.24L271.52-21.24L271.52-21.24Q269.64-21.24 268.32-21.71ZM296.05-21.71L296.05-21.71L296.05-21.71Q296.76-23.12 296.76-24.44L296.76-24.44L296.76-24.44Q296.76-25.76 296.62-26.48L296.62-26.48L296.62-26.48Q296.48-27.21 296.15-27.78L296.15-27.78L296.15-27.78Q295.44-29.00 294.03-29.00L294.03-29.00L294.03-29.00Q292.29-29.00 290.88-27.73L290.88-27.73L290.88-27.73Q289.38-26.41 289.38-24.35L289.38-24.35L289.38-24.35Q289.38-23.03 290.30-22.02L290.30-22.02L290.30-22.02Q291.21-21.01 292.62-20.07L292.62-20.07L292.62-20.07Q294.03-19.13 295.63-18.19L295.63-18.19L295.63-18.19Q297.23-17.25 298.64-16.12L298.64-16.12L298.64-16.12Q301.88-13.54 301.88-10.06L301.88-10.06L301.88-10.06Q301.88-7.71 300.64-5.71L300.64-5.71L300.64-5.71Q299.39-3.71 297.32-2.26L297.32-2.26L297.32-2.26Q292.81 0.94 286.84 0.94L286.84 0.94L286.84 0.94Q282 0.94 279.51-0.63L279.51-0.63L279.51-0.63Q277.02-2.21 277.02-4.61L277.02-4.61L277.02-4.61Q277.02-8.88 280.35-9.96L280.35-9.96L280.35-9.96Q281.29-10.29 282.73-10.29L282.73-10.29L282.73-10.29Q284.16-10.29 285.81-9.68L285.81-9.68L285.81-9.68Q285.05-7.75 285.05-6.02L285.05-6.02L285.05-6.02Q285.05-2.26 287.73-2.26L287.73-2.26L287.73-2.26Q289.47-2.26 290.91-3.52L290.91-3.52L290.91-3.52Q292.34-4.79 292.34-6.23L292.34-6.23L292.34-6.23Q292.34-7.66 291.42-8.70L291.42-8.70L291.42-8.70Q290.51-9.73 289.14-10.55L289.14-10.55L289.14-10.55Q287.78-11.37 286.21-12.17L286.21-12.17L286.21-12.17Q284.63-12.97 283.27-14.10L283.27-14.10L283.27-14.10Q280.07-16.68 280.07-20.82L280.07-20.82L280.07-20.82Q280.07-23.50 281.39-25.59L281.39-25.59L281.39-25.59Q282.70-27.68 284.82-29.09L284.82-29.09L284.82-29.09Q289.05-31.96 294.24-31.96L294.24-31.96L294.24-31.96Q299.44-31.96 301.95-30.41L301.95-30.41L301.95-30.41Q304.47-28.86 304.47-26.23L304.47-26.23L304.47-26.23Q304.47-23.92 302.68-22.47L302.68-22.47L302.68-22.47Q301.13-21.24 299.25-21.24L299.25-21.24L299.25-21.24Q297.37-21.24 296.05-21.71Z" fill="#f00" stroke="#0f0" stroke-width="1.8"></path></g></g><g><g transform="translate(97.73217192292213, 91.49500465393066)"><path d="M19.18-31.35L19.18-31.35L19.18-31.35Q30.69-31.35 30.69-23.22L30.69-23.22L30.69-23.22Q30.69-18.75 27.82-16.07L27.82-16.07L27.82-16.07Q25.00-13.39 20.07-13.39L20.07-13.39L20.07-13.39Q17.77-13.39 15.98-14.71L15.98-14.71L15.98-14.71Q15.13-15.28 14.57-16.03L14.57-16.03L14.57-16.03Q18.00-16.03 19.81-18.12L19.81-18.12L19.81-18.12Q21.62-20.21 21.62-24.30L21.62-24.30L21.62-24.30Q21.62-28.39 17.58-28.39L17.58-28.39L16.45-28.39L16.45-28.39Q16.17-28.39 15.93-28.34L15.93-28.34L10.53 0L0.33 0L6.11-30.79L6.11-30.79Q11.14-31.25 14.05-31.30L14.05-31.30L14.05-31.30Q16.97-31.35 19.18-31.35ZM49.96-15.13L59.45-15.98L59.45-15.98Q56.07-8.55 56.07 0.05L56.07 0.05L56.07 0.05Q54.80 0.94 52.95 0.94L52.95 0.94L52.95 0.94Q51.09 0.94 49.91 0.07L49.91 0.07L49.91 0.07Q48.74-0.80 48.50-1.69L48.50-1.69L48.50-1.69Q47.33-0.47 45.43 0.23L45.43 0.23L45.43 0.23Q43.52 0.94 41.50 0.94L41.50 0.94L41.50 0.94Q39.48 0.94 37.72 0.28L37.72 0.28L37.72 0.28Q35.95-0.38 34.59-1.83L34.59-1.83L34.59-1.83Q31.58-5.03 31.58-11.09L31.58-11.09L31.58-11.09Q31.58-20.49 36.61-26.13L36.61-26.13L36.61-26.13Q41.78-31.96 50.95-31.96L50.95-31.96L50.95-31.96Q57.29-31.96 59.55-28.67L59.55-28.67L59.55-28.67Q60.25-27.64 60.25-26.39L60.25-26.39L60.25-26.39Q60.25-25.14 59.71-24.09L59.71-24.09L59.71-24.09Q59.17-23.03 58.33-22.18L58.33-22.18L58.33-22.18Q56.31-20.30 53.81-20.30L53.81-20.30L53.81-20.30Q52.83-20.30 51.89-20.63L51.89-20.63L51.89-20.63Q52.08-22.04 52.08-23.69L52.08-23.69L52.08-23.69Q52.08-25.33 51.96-26.09L51.96-26.09L51.96-26.09Q51.84-26.84 51.56-27.45L51.56-27.45L51.56-27.45Q50.95-28.72 49.61-28.72L49.61-28.72L49.61-28.72Q48.27-28.72 46.79-27.28L46.79-27.28L46.79-27.28Q45.31-25.85 44.13-23.50L44.13-23.50L44.13-23.50Q41.55-18.24 41.55-11.89L41.55-11.89L41.55-11.89Q41.55-8.98 42.68-6.91L42.68-6.91L42.68-6.91Q43.90-4.65 46.06-4.65L46.06-4.65L46.06-4.65Q46.81-4.65 47.49-5.03L47.49-5.03L47.49-5.03Q48.17-5.41 48.46-5.69L48.46-5.69L49.96-15.13ZM81.83-7.24L81.83-7.24L81.83-7.24Q82.72-6.11 82.72-4.28L82.72-4.28L82.72-4.28Q82.72-1.74 80.84-0.40L80.84-0.40L80.84-0.40Q78.96 0.94 76.00 0.94L76.00 0.94L76.00 0.94Q74.31 0.94 71.72 0.56L71.72 0.56L71.72 0.56Q66.65-0.23 65.09-0.23L65.09-0.23L65.09-0.23Q63.54-0.23 62.93-0.16L62.93-0.16L62.93-0.16Q62.32-0.09 61.34 0L61.34 0L67.12-31.02L87.37-31.02L87.37-31.02Q87.37-28.15 85.99-26.65L85.99-26.65L85.99-26.65Q84.60-25.14 81.87-25.14L81.87-25.14L81.87-25.14Q79.15-25.14 76.38-26.41L76.38-26.41L74.92-18.19L83.28-18.19L83.28-18.19Q83.28-15.70 82.06-14.31L82.06-14.31L82.06-14.31Q80.84-12.93 78.80-12.93L78.80-12.93L78.80-12.93Q76.75-12.93 75.48-13.39L75.48-13.39L75.48-13.39Q74.21-13.87 74.07-14.01L74.07-14.01L72.38-5.12L72.38-5.12Q73.51-4.98 75.62-4.98L75.62-4.98L75.62-4.98Q79.24-4.98 81.83-7.24ZM107.68 0.94L107.68 0.94L107.68 0.94Q101.66 0.94 101.10-7.61L101.10-7.61L93.01-7.61L93.01-7.61Q92.07-5.45 91.42-3.57L91.42-3.57L90.19 0L83.61 0L98.42-31.02L108.52-31.02L110.50-8.18L110.50-8.18Q110.97-3.24 112.85-1.79L112.85-1.79L112.85-1.79Q111.48 0.94 107.68 0.94ZM97.06-17.01L94.47-11.04L100.96-11.04L100.39-23.12L100.39-24.39L97.06-17.01ZM146.64-24.91L146.64-24.91L146.64-24.91Q142.83-24.91 140.06-26.18L140.06-26.18L138.56-18.57L147.63-18.57L147.63-18.57Q147.63-16.07 146.38-14.50L146.38-14.50L146.38-14.50Q145.14-12.93 142.88-12.93L142.88-12.93L142.88-12.93Q140.44-12.93 138.18-13.82L138.18-13.82L138.18-13.82Q137.71-14.01 137.66-14.05L137.66-14.05L134.98 0L124.74 0L130.71-31.02L151.67-31.02L151.67-31.02Q151.67-28.15 150.33-26.53L150.33-26.53L150.33-26.53Q148.99-24.91 146.64-24.91ZM160.22 0L149.98 0L155.95-31.02L166.29-31.02L160.22 0ZM171.08-22.89L171.08-22.89L171.08-22.89Q169.48-24.11 169.48-26.72L169.48-26.72L169.48-26.72Q169.48-29.33 171.20-30.69L171.20-30.69L171.20-30.69Q172.91-32.05 175.87-32.05L175.87-32.05L175.87-32.05Q177.75-32.05 182.22-31.40L182.22-31.40L185.41-30.93L185.41-30.93Q187.01-30.74 188.68-30.74L188.68-30.74L188.68-30.74Q190.35-30.74 191.48-31.44L191.48-31.44L191.48-31.44Q193.17-29.94 193.17-27.78L193.17-27.78L193.17-27.78Q193.17-25.61 191.24-24.06L191.24-24.06L191.24-24.06Q189.27-22.42 186.73-22.42L186.73-22.42L186.73-22.42Q185.51-22.42 183.53-22.75L183.53-22.75L183.53-22.75Q181.23-15.51 181.23-10.48L181.23-10.48L181.23-10.48Q181.23-5.45 183.77-2.82L183.77-2.82L183.77-2.82Q182.59-0.70 180.86 0.12L180.86 0.12L180.86 0.12Q179.12 0.94 176.51 0.94L176.51 0.94L176.51 0.94Q173.90 0.94 172.28-0.49L172.28-0.49L172.28-0.49Q170.66-1.93 170.66-4.89L170.66-4.89L170.66-4.89Q170.66-8.32 172.54-13.96L172.54-13.96L172.54-13.96Q174.42-19.55 177.24-23.83L177.24-23.83L177.24-23.83Q175.87-23.97 174.46-23.97L174.46-23.97L174.46-23.97Q171.55-23.97 171.08-22.89ZM196.51 0L191.34 0L196.98-31.02L207.08-31.02L214.41-9.68L218.31-31.02L223.53-30.97L217.80 0L207.03 0L200.27-20.54L196.51 0ZM244.78-7.24L244.78-7.24L244.78-7.24Q245.67-6.11 245.67-4.28L245.67-4.28L245.67-4.28Q245.67-1.74 243.79-0.40L243.79-0.40L243.79-0.40Q241.91 0.94 238.95 0.94L238.95 0.94L238.95 0.94Q237.26 0.94 234.67 0.56L234.67 0.56L234.67 0.56Q229.59-0.23 228.04-0.23L228.04-0.23L228.04-0.23Q226.49-0.23 225.88-0.16L225.88-0.16L225.88-0.16Q225.27-0.09 224.28 0L224.28 0L230.06-31.02L250.32-31.02L250.32-31.02Q250.32-28.15 248.94-26.65L248.94-26.65L248.94-26.65Q247.55-25.14 244.82-25.14L244.82-25.14L244.82-25.14Q242.10-25.14 239.32-26.41L239.32-26.41L237.87-18.19L246.23-18.19L246.23-18.19Q246.23-15.70 245.01-14.31L245.01-14.31L245.01-14.31Q243.79-12.93 241.74-12.93L241.74-12.93L241.74-12.93Q239.70-12.93 238.43-13.39L238.43-13.39L238.43-13.39Q237.16-13.87 237.02-14.01L237.02-14.01L235.33-5.12L235.33-5.12Q236.46-4.98 238.57-4.98L238.57-4.98L238.57-4.98Q242.19-4.98 244.78-7.24ZM268.32-21.71L268.32-21.71L268.32-21.71Q269.03-23.12 269.03-24.44L269.03-24.44L269.03-24.44Q269.03-25.76 268.89-26.48L268.89-26.48L268.89-26.48Q268.75-27.21 268.42-27.78L268.42-27.78L268.42-27.78Q267.71-29.00 266.30-29.00L266.30-29.00L266.30-29.00Q264.56-29.00 263.15-27.73L263.15-27.73L263.15-27.73Q261.65-26.41 261.65-24.35L261.65-24.35L261.65-24.35Q261.65-23.03 262.57-22.02L262.57-22.02L262.57-22.02Q263.48-21.01 264.89-20.07L264.89-20.07L264.89-20.07Q266.30-19.13 267.90-18.19L267.90-18.19L267.90-18.19Q269.50-17.25 270.91-16.12L270.91-16.12L270.91-16.12Q274.15-13.54 274.15-10.06L274.15-10.06L274.15-10.06Q274.15-7.71 272.91-5.71L272.91-5.71L272.91-5.71Q271.66-3.71 269.59-2.26L269.59-2.26L269.59-2.26Q265.08 0.94 259.11 0.94L259.11 0.94L259.11 0.94Q254.27 0.94 251.78-0.63L251.78-0.63L251.78-0.63Q249.29-2.21 249.29-4.61L249.29-4.61L249.29-4.61Q249.29-8.88 252.63-9.96L252.63-9.96L252.63-9.96Q253.56-10.29 255.00-10.29L255.00-10.29L255.00-10.29Q256.43-10.29 258.08-9.68L258.08-9.68L258.08-9.68Q257.32-7.75 257.32-6.02L257.32-6.02L257.32-6.02Q257.32-2.26 260.00-2.26L260.00-2.26L260.00-2.26Q261.74-2.26 263.18-3.52L263.18-3.52L263.18-3.52Q264.61-4.79 264.61-6.23L264.61-6.23L264.61-6.23Q264.61-7.66 263.69-8.70L263.69-8.70L263.69-8.70Q262.78-9.73 261.41-10.55L261.41-10.55L261.41-10.55Q260.05-11.37 258.48-12.17L258.48-12.17L258.48-12.17Q256.90-12.97 255.54-14.10L255.54-14.10L255.54-14.10Q252.34-16.68 252.34-20.82L252.34-20.82L252.34-20.82Q252.34-23.50 253.66-25.59L253.66-25.59L253.66-25.59Q254.97-27.68 257.09-29.09L257.09-29.09L257.09-29.09Q261.32-31.96 266.51-31.96L266.51-31.96L266.51-31.96Q271.71-31.96 274.22-30.41L274.22-30.41L274.22-30.41Q276.74-28.86 276.74-26.23L276.74-26.23L276.74-26.23Q276.74-23.92 274.95-22.47L274.95-22.47L274.95-22.47Q273.40-21.24 271.52-21.24L271.52-21.24L271.52-21.24Q269.64-21.24 268.32-21.71ZM296.05-21.71L296.05-21.71L296.05-21.71Q296.76-23.12 296.76-24.44L296.76-24.44L296.76-24.44Q296.76-25.76 296.62-26.48L296.62-26.48L296.62-26.48Q296.48-27.21 296.15-27.78L296.15-27.78L296.15-27.78Q295.44-29.00 294.03-29.00L294.03-29.00L294.03-29.00Q292.29-29.00 290.88-27.73L290.88-27.73L290.88-27.73Q289.38-26.41 289.38-24.35L289.38-24.35L289.38-24.35Q289.38-23.03 290.30-22.02L290.30-22.02L290.30-22.02Q291.21-21.01 292.62-20.07L292.62-20.07L292.62-20.07Q294.03-19.13 295.63-18.19L295.63-18.19L295.63-18.19Q297.23-17.25 298.64-16.12L298.64-16.12L298.64-16.12Q301.88-13.54 301.88-10.06L301.88-10.06L301.88-10.06Q301.88-7.71 300.64-5.71L300.64-5.71L300.64-5.71Q299.39-3.71 297.32-2.26L297.32-2.26L297.32-2.26Q292.81 0.94 286.84 0.94L286.84 0.94L286.84 0.94Q282 0.94 279.51-0.63L279.51-0.63L279.51-0.63Q277.02-2.21 277.02-4.61L277.02-4.61L277.02-4.61Q277.02-8.88 280.35-9.96L280.35-9.96L280.35-9.96Q281.29-10.29 282.73-10.29L282.73-10.29L282.73-10.29Q284.16-10.29 285.81-9.68L285.81-9.68L285.81-9.68Q285.05-7.75 285.05-6.02L285.05-6.02L285.05-6.02Q285.05-2.26 287.73-2.26L287.73-2.26L287.73-2.26Q289.47-2.26 290.91-3.52L290.91-3.52L290.91-3.52Q292.34-4.79 292.34-6.23L292.34-6.23L292.34-6.23Q292.34-7.66 291.42-8.70L291.42-8.70L291.42-8.70Q290.51-9.73 289.14-10.55L289.14-10.55L289.14-10.55Q287.78-11.37 286.21-12.17L286.21-12.17L286.21-12.17Q284.63-12.97 283.27-14.10L283.27-14.10L283.27-14.10Q280.07-16.68 280.07-20.82L280.07-20.82L280.07-20.82Q280.07-23.50 281.39-25.59L281.39-25.59L281.39-25.59Q282.70-27.68 284.82-29.09L284.82-29.09L284.82-29.09Q289.05-31.96 294.24-31.96L294.24-31.96L294.24-31.96Q299.44-31.96 301.95-30.41L301.95-30.41L301.95-30.41Q304.47-28.86 304.47-26.23L304.47-26.23L304.47-26.23Q304.47-23.92 302.68-22.47L302.68-22.47L302.68-22.47Q301.13-21.24 299.25-21.24L299.25-21.24L299.25-21.24Q297.37-21.24 296.05-21.71Z" fill="none" stroke="#fff" stroke-width="2.1"></path></g></g></g><style>text {
  font-size: 64px;
  font-family: Arial Black;
  dominant-baseline: central;
  text-anchor: middle;
}</style></svg>